<svg xmlns="http://www.w3.org/2000/svg" viewBox="0 0 91.83 43.55"><defs><style>.cls-1{fill:#3c3c3b;}.cls-2{fill:#fff;}</style></defs><title>Fichier 7</title><g id="Calque_2" data-name="Calque 2"><g id="Calque_1-2" data-name="Calque 1"><path class="cls-1" d="M41.37,0H2.18A2.17,2.17,0,0,0,0,2.18V41.37a2.18,2.18,0,0,0,2.18,2.18H41.37a2.19,2.19,0,0,0,2.18-2.18V2.18A2.18,2.18,0,0,0,41.37,0ZM24.72,26a1.09,1.09,0,0,1-1.54,1.54l-5.76-5.77L23.18,16a1.09,1.09,0,0,1,1.54,1.54L20.5,21.77Z"/><path class="cls-2" d="M24.72,16a1.1,1.1,0,0,0-1.54,0l-5.76,5.76,5.76,5.77A1.09,1.09,0,0,0,24.72,26L20.5,21.77l4.22-4.22A1.1,1.1,0,0,0,24.72,16Z"/><path class="cls-1" d="M48.28,2.18V41.37a2.19,2.19,0,0,0,2.18,2.18H89.65a2.18,2.18,0,0,0,2.18-2.18V2.18A2.17,2.17,0,0,0,89.65,0H50.46A2.18,2.18,0,0,0,48.28,2.18Zm23,19.59-4.22-4.22A1.09,1.09,0,1,1,68.65,16l5.76,5.76-5.76,5.77A1.09,1.09,0,1,1,67.11,26Z"/><path class="cls-2" d="M67.11,16a1.1,1.1,0,0,1,1.54,0l5.76,5.76-5.76,5.77A1.09,1.09,0,1,1,67.11,26l4.22-4.23-4.22-4.22A1.1,1.1,0,0,1,67.11,16Z"/></g></g></svg>