<?xml version="1.0" encoding="utf-8"?>
<!-- Generator: Adobe Illustrator 24.0.0, SVG Export Plug-In . SVG Version: 6.00 Build 0)  -->
<svg version="1.1" id="Calque_1" xmlns="http://www.w3.org/2000/svg" xmlns:xlink="http://www.w3.org/1999/xlink" x="0px" y="0px"
	 viewBox="0 0 95.2 95.2" style="enable-background:new 0 0 95.2 95.2;" xml:space="preserve">
<style type="text/css">
	.st0{fill:#F28F38;}
	.st1{fill:#FFFFFF;}
</style>
<title>Fichier 10</title>
<circle class="st0" cx="47.6" cy="47.6" r="47.6"/>
<g id="Calque_2_1_">
	<g id="Calque_1-2">
		<path class="st1" d="M70.2,55.7h2.2v-9.9H24.2c-0.3,0-0.5-0.1-0.7-0.2c-0.2,0.1-0.5,0.2-0.7,0.2v9.9h1.6c1.3,0,2.3,1,2.3,2.3
			c0,0,0,0,0,0v0.2l0,0c0,1.5,0.6,2.9,1.6,4l0.1,0.1c2.2,2.1,5.7,2.1,7.9-0.1c1-1.1,1.6-2.5,1.7-4V58c0-1.2,1-2.2,2.2-2.2
			c0,0,0,0,0,0l0,0l0,0h14.1c1.2,0,2.2,1,2.2,2.3c0,0,0,0,0,0v0.2l0,0c0,1.5,0.6,2.9,1.7,4l0.1,0.1c1.1,1,2.5,1.6,3.9,1.6
			c3.1,0,5.7-2.5,5.7-5.6c0,0,0-0.1,0-0.1V58C67.9,56.7,68.9,55.7,70.2,55.7C70.2,55.7,70.2,55.7,70.2,55.7L70.2,55.7L70.2,55.7
			L70.2,55.7z M62.3,55.9L62.3,55.9c1.2,0,2.3,1,2.3,2.3c0,1.2-1,2.3-2.3,2.3c-1.2,0-2.3-1-2.3-2.3c0,0,0,0,0,0
			C60.1,56.9,61.1,55.9,62.3,55.9z M32.3,55.9L32.3,55.9c1.2,0,2.3,1,2.3,2.2c0,1.2-1,2.3-2.2,2.3c-1.2,0-2.3-1-2.3-2.2c0,0,0,0,0,0
			C30.1,56.9,31.1,55.9,32.3,55.9C32.3,55.9,32.3,55.9,32.3,55.9L32.3,55.9z M74.7,60.2h-2.4c-0.4,1.9-1.3,3.7-2.7,5.1l0,0l0,0
			c-3.9,3.9-10.3,4-14.3,0.1l-0.1-0.1c-1.4-1.4-2.4-3.2-2.8-5.2h-10c-0.4,1.9-1.3,3.7-2.7,5.1l0,0l0,0c-3.9,4-10.4,4.1-14.4,0.2
			l-0.1-0.1c-1.4-1.4-2.4-3.2-2.8-5.2h-1.8c-1.2,0-2.3-0.9-2.3-2.2c0,0,0,0,0,0V43.6c0-1.2,1-2.3,2.3-2.3c0,0,0,0,0,0h0.6l6.2-13
			c0.3-0.9,1.2-1.4,2.1-1.4h27.7c0.9,0,1.6,0.5,2,1.3l6.2,13.1h9.4c1.2,0,2.3,1,2.3,2.2c0,0,0,0,0,0V58C77,59.2,76,60.2,74.7,60.2
			C74.8,60.2,74.8,60.2,74.7,60.2L74.7,60.2z"/>
	</g>
</g>
</svg>
