<?xml version="1.0" encoding="utf-8"?>
<!-- Generator: Adobe Illustrator 24.0.0, SVG Export Plug-In . SVG Version: 6.00 Build 0)  -->
<svg version="1.1" id="Calque_1" xmlns="http://www.w3.org/2000/svg" xmlns:xlink="http://www.w3.org/1999/xlink" x="0px" y="0px"
	 viewBox="0 0 49.1 44.1" style="enable-background:new 0 0 49.1 44.1;" xml:space="preserve">
<style type="text/css">
	.st0{fill:#FFFFFF;}
</style>
<title>Fichier 4</title>
<g id="Calque_2_1_">
	<g id="Calque_1-2">
		<path class="st0" d="M36.3,2.7c0,1,0,1.8,0,2.5c0,0.2-0.1,0.4-0.3,0.5C35.8,5.8,35.7,6,35.5,6c-11.8,3.7-23,3.6-33.6-0.2
			C1.8,5.8,1.8,5.7,1.8,5.6c5.8,1,11.8,0.9,17.6-0.1C25.2,4.5,30.9,2.6,36.3,0V2.7z M42.9,7.5c0,0.5-0.1,1.1-0.3,1.5
			c-0.3,0.4-0.7,0.7-1.2,0.9c-0.4,0.2-1.3,0.4-2.5,0.8c-11.2,3.1-23.1,2.5-34-1.7C4.6,8.9,4.3,8.6,4.1,8.4
			c12.9,3.3,25.8,2.1,38.6-3.7C42.8,6.1,42.9,7,42.9,7.5z M31.9,19.4l-1.2-0.1c-0.3,0-0.6,0-1,0c-4,0-7.6,2.5-9,6.3h-3.5V28h3v0.7
			c0,0.5,0,0.9,0.1,1.4h-3v2.5H21l0.3,0.4c0.5,0.9,1,1.7,1.7,2.4c1.8,1.8,4.2,2.8,6.7,2.8l2.2-0.1l-0.1-2.5l-2,0.1
			c-1.9,0-3.7-0.7-5-2c-0.3-0.3-0.6-0.6-0.9-1h5.6v-2.6h-6.7c-0.1-0.5-0.1-0.9-0.1-1.4V28h6.7v-2.5h-6c0.3-0.7,0.8-1.3,1.3-1.8
			c1.3-1.3,3.1-2,5-2l2,0.1L31.9,19.4z M49.1,10.4v13c0,5.2,0,9.5,0,13c0,0.6-0.1,1.2-0.4,1.7c-0.4,0.5-0.8,0.8-1.4,1
			C32.2,45.7,17,45.7,1.8,39c-0.5-0.2-1-0.5-1.4-1C0.1,37.6,0,37,0,36.4c0-3.8,0.1-8.4,0.1-13.8C0,16.4,0,11.7,0,8.5
			c7.7,3.7,16,5.7,24.5,5.7c8.5-0.1,16.8-2,24.5-5.7C49.1,9.7,49.1,10.3,49.1,10.4L49.1,10.4z"/>
	</g>
</g>
</svg>
