<?xml version="1.0" encoding="utf-8"?>
<!-- Generator: Adobe Illustrator 24.0.0, SVG Export Plug-In . SVG Version: 6.00 Build 0)  -->
<svg version="1.1" id="Calque_1" xmlns="http://www.w3.org/2000/svg" xmlns:xlink="http://www.w3.org/1999/xlink" x="0px" y="0px"
	 viewBox="0 0 95.2 95.2" style="enable-background:new 0 0 95.2 95.2;" xml:space="preserve">
<style type="text/css">
	.st0{fill:#F28F38;}
	.st1{fill:#FFFFFF;}
</style>
<title>Fichier 10</title>
<circle class="st0" cx="47.6" cy="47.6" r="47.6"/>
<g id="Calque_2_1_">
	<g id="Calque_1-2">
		<path class="st1" d="M74.9,46.9L49.5,21.5l0,0c-0.8-0.8-2.2-0.8-3,0L21,46.9c-0.8,0.8-0.9,2.1-0.1,2.9c0,0,0,0,0.1,0.1
			c0.8,0.8,2.2,0.8,3,0l4.4-4.4V66c0,1.2,0.9,2.1,2.1,2.1c0,0,0,0,0,0h35c1.2,0,2.1-0.9,2.1-2.1c0,0,0,0,0,0V45.5l4.4,4.4
			c0.8,0.8,2.2,0.8,3,0C75.8,49.1,75.8,47.7,74.9,46.9L74.9,46.9L74.9,46.9z M32.3,43.6l15.8-16.3l15.4,16L32.3,43.6z"/>
	</g>
</g>
</svg>
