<?xml version="1.0" encoding="utf-8"?>
<!-- Generator: Adobe Illustrator 24.0.0, SVG Export Plug-In . SVG Version: 6.00 Build 0)  -->
<svg version="1.1" id="Calque_1" xmlns="http://www.w3.org/2000/svg" xmlns:xlink="http://www.w3.org/1999/xlink" x="0px" y="0px"
	 viewBox="0 0 43.5 43.5" style="enable-background:new 0 0 43.5 43.5;" xml:space="preserve">
<style type="text/css">
	.st0{fill:#FFFFFF;}
</style>
<title>Fichier 3</title>
<g id="Calque_2_1_">
	<g id="Calque_1-2">
		<path class="st0" d="M21.7,0C9.7,0,0,9.7,0,21.7s9.7,21.8,21.8,21.8s21.8-9.7,21.8-21.8c0,0,0,0,0,0C43.5,9.7,33.8,0,21.7,0
			C21.7,0,21.7,0,21.7,0z M21.7,8c0.9,0,1.6,0.7,1.6,1.6l0,0v11.1l8.3,4.8c0.8,0.4,1,1.4,0.6,2.2c-0.4,0.8-1.4,1-2.2,0.6l-9.1-5.2
			c-0.5-0.3-0.8-0.8-0.8-1.4V9.7C20.1,8.8,20.9,8,21.7,8L21.7,8z"/>
	</g>
</g>
</svg>
