<?xml version="1.0" encoding="utf-8"?>
<!-- Generator: Adobe Illustrator 23.0.1, SVG Export Plug-In . SVG Version: 6.00 Build 0)  -->
<svg version="1.1" id="Calque_1" xmlns="http://www.w3.org/2000/svg" xmlns:xlink="http://www.w3.org/1999/xlink" x="0px" y="0px"
	 viewBox="0 0 50.9 51.9" style="enable-background:new 0 0 50.9 51.9;" xml:space="preserve">
<style type="text/css">
	.st0{fill:#001856;}
</style>
<title>Fichier 1</title>
<g>
	<g id="Calque_1-2">
		<path class="st0" d="M36.4,12.7l-15.7,8l-0.1,0.1l-0.2,0.1L20.3,21c0,0-0.1,0.1-0.1,0.1c0,0.1-0.1,0.1-0.1,0.2L20,21.4L12,37
			c-0.4,0.8-0.1,1.8,0.7,2.2c0.5,0.2,1,0.2,1.5,0l15.7-8l0.1-0.1l0.2-0.1l0.1-0.1c0,0,0.1-0.1,0.1-0.1l0.1-0.2l0.1-0.1l8-15.6
			c0.3-0.6,0.2-1.4-0.3-1.9C37.8,12.5,37,12.4,36.4,12.7z M17.2,34l4.7-9.1l2.2,2.2l2.2,2.2L17.2,34z"/>
		<path class="st0" d="M8.1,46.4c-0.8-0.6-0.9-1.7-0.3-2.4c0.6-0.8,1.7-0.9,2.4-0.3c9.8,7.7,23.9,6,31.6-3.8s6-23.9-3.8-31.6
			c-9.8-7.7-23.9-6-31.6,3.8c-0.7,0.7-1.8,0.7-2.4,0c-0.6-0.6-0.7-1.4-0.3-2.1C12.6-1.4,28.9-3.4,40.2,5.5S53.5,30.7,44.6,42
			S19.4,55.3,8.1,46.4C8.1,46.4,8.1,46.4,8.1,46.4z"/>
		<path class="st0" d="M1.9,15c-0.4-0.3-0.6-0.7-0.6-1.1L0,4.1c-0.1-1,0.6-1.8,1.5-1.9c0.9-0.1,1.8,0.6,1.9,1.5l1,8.1l8.1-0.9
			c0.9-0.1,1.8,0.6,1.9,1.5s-0.6,1.8-1.5,1.9l-9.8,1.1C2.7,15.5,2.2,15.3,1.9,15z"/>
		<path class="st0" d="M43.9,10.6c2.3,1.2,5.2,0.3,6.5-2c1.2-2.3,0.3-5.2-2-6.5c-2.3-1.2-5.2-0.3-6.5,2C40.6,6.5,41.5,9.4,43.9,10.6
			z M47.2,4.4c1.1,0.6,1.6,2,1,3.1c-0.6,1.1-2,1.6-3.1,1c-1.1-0.6-1.6-2-1-3.1c0,0,0,0,0,0C44.7,4.2,46.1,3.8,47.2,4.4z"/>
	</g>
</g>
</svg>
