<?xml version="1.0" encoding="utf-8"?>
<!-- Generator: Adobe Illustrator 24.0.0, SVG Export Plug-In . SVG Version: 6.00 Build 0)  -->
<svg version="1.1" id="Calque_1" xmlns="http://www.w3.org/2000/svg" xmlns:xlink="http://www.w3.org/1999/xlink" x="0px" y="0px"
	 viewBox="0 0 43.3 43.2" style="enable-background:new 0 0 43.3 43.2;" xml:space="preserve">
<style type="text/css">
	.st0{fill:#FFFFFF;}
</style>
<title>Fichier 6</title>
<g id="Calque_2_1_">
	<g id="Calque_1-2">
		<path class="st0" d="M21.6,0C9.7,0,0.1,9.7,0.1,21.7s9.7,21.6,21.7,21.5c11.9,0,21.5-9.7,21.5-21.5C43.3,9.7,33.7,0,21.8,0
			C21.7,0,21.7,0,21.6,0z M21.6,41.1c-10.7,0-19.4-8.7-19.4-19.4c0-10.7,8.7-19.4,19.4-19.4c10.7,0,19.4,8.7,19.4,19.4
			C41.1,32.4,32.4,41.1,21.6,41.1z"/>
		<path class="st0" d="M23,30c-0.5,0.6-0.9,0.9-1.2,0.9c-0.1,0-0.2,0-0.3-0.1c-0.1,0-0.1-0.2-0.1-0.5c0.1-0.5,0.2-1,0.3-1.5
			c0.1-0.3,0.2-0.9,0.5-1.7l2.6-9.5L23.2,18c-0.9,0.2-1.7,0.3-2.6,0.3c-1.2,0.1-2.1,0.2-2.8,0.2v0.9c0.5,0,1.1,0.1,1.6,0.2
			c0.3,0.1,0.5,0.3,0.5,0.8v0.2c-0.1,0-0.1,0.1-0.1,0.2l-2,7.5c-0.1,0.5-0.2,0.9-0.3,1.3c-0.1,0.4-0.2,0.8-0.2,1.2
			c0,0.6,0.3,1.2,0.8,1.7c0.5,0.3,1.1,0.5,1.7,0.6c1.1,0,2.2-0.5,3-1.4c0.9-1,1.7-2.1,2.5-3.3l-0.8-0.5C24,28.8,23.5,29.4,23,30z"/>
		<path class="st0" d="M23.8,9.9c-0.6,0-1.2,0.3-1.6,0.7c-0.4,0.4-0.7,1-0.7,1.6c0,0.6,0.2,1.2,0.7,1.6c0.4,0.4,1,0.7,1.6,0.7
			c0.6,0,1.2-0.2,1.6-0.7c0.4-0.4,0.7-1,0.6-1.6c0-0.6-0.2-1.2-0.7-1.6C24.9,10.1,24.4,9.9,23.8,9.9z"/>
	</g>
</g>
</svg>
