<?xml version="1.0" encoding="utf-8"?>
<!-- Generator: Adobe Illustrator 24.0.0, SVG Export Plug-In . SVG Version: 6.00 Build 0)  -->
<svg version="1.1" id="Calque_1" xmlns="http://www.w3.org/2000/svg" xmlns:xlink="http://www.w3.org/1999/xlink" x="0px" y="0px"
	 viewBox="0 0 56.2 52.9" style="enable-background:new 0 0 56.2 52.9;" xml:space="preserve">
<style type="text/css">
	.st0{fill:#FFFFFF;}
</style>
<title>Fichier 10</title>
<g id="Calque_2_1_">
	<g id="Calque_1-2">
		<path class="st0" d="M3.3,34.9l3.8-4.1C8.6,29,12.8,29,12.8,29l16.6,0.4L16.7,52.9c3.5,0.1,6-2.9,6-2.9l4.7-5.4l2.5,0.1
			c0.5,0,0.9-0.4,0.9-0.9c0,0,0,0,0,0c0-0.5-0.3-0.9-0.8-0.9h-1l3.7-4.3l2.1,0.1c0.5,0,0.9-0.4,0.9-0.9s-0.4-0.9-0.9-0.9h-0.6l6.1-7
			l8.6,0.2c6.6,0.2,7.3-2.6,7.3-2.6s-0.5-2.8-7.1-3l-8.6-0.2L34.8,17h0.6c0.5,0,0.9-0.4,0.9-0.9c0-0.5-0.4-0.9-0.9-0.9l-2.1-0.1
			l-3.5-4.5h1c0.5,0,0.9-0.4,0.9-0.9c0-0.5-0.4-0.9-0.9-0.9c0,0,0,0,0,0l-2.4-0.1L24,3.2c0,0-2.4-3.1-5.9-3.2l11.4,24.1l-16.6-0.4
			c0,0-4.2-0.2-5.6-2.1l-3.6-4.3c-0.6-1.2-1.9-1.9-3.2-1.9l2.2,10.7L0,36.6C1.3,36.7,2.6,36.1,3.3,34.9z"/>
	</g>
</g>
</svg>
