<?xml version="1.0" encoding="utf-8"?>
<!-- Generator: Adobe Illustrator 24.0.0, SVG Export Plug-In . SVG Version: 6.00 Build 0)  -->
<svg version="1.1" id="Calque_1" xmlns="http://www.w3.org/2000/svg" xmlns:xlink="http://www.w3.org/1999/xlink" x="0px" y="0px"
	 viewBox="0 0 95.2 95.2" style="enable-background:new 0 0 95.2 95.2;" xml:space="preserve">
<style type="text/css">
	.st0{fill:#F28F38;}
	.st1{fill:#FFFFFF;}
</style>
<title>Fichier 10</title>
<circle class="st0" cx="47.6" cy="47.6" r="47.6"/>
<g id="Calque_2_1_">
	<g id="Calque_1-2">
		<path class="st1" d="M40.5,66.2L40.2,61c-0.3-2.2,2.4-5,2.4-5l10.9-10.9l7.7,23.5c2.3-2.3,1.9-5.9,1.9-5.9l-0.6-6.6l1.6-1.6
			c0.3-0.3,0.3-0.9,0-1.2c-0.3-0.3-0.9-0.3-1.2,0l-0.7,0.6l-0.5-5.2l1.4-1.4c0.3-0.3,0.3-0.9,0-1.2c-0.3-0.3-0.9-0.3-1.2,0l-0.3,0.5
			L60.8,38l5.6-5.6c4.3-4.3,2.9-6.5,2.9-6.5s-2.2-1.4-6.5,2.9l-5.6,5.6l-8.6-0.8l0.4-0.4c0.3-0.3,0.3-0.9,0-1.2
			c-0.4-0.4-0.9-0.4-1.2-0.1l-1.4,1.4l-5.2-0.5l0.6-0.6c0.3-0.3,0.3-0.8,0-1.2c-0.3-0.3-0.8-0.3-1.2,0L39,32.6L32.4,32
			c0,0-3.6-0.4-5.9,1.9L50,41.6L39.1,52.5c0,0-2.8,2.7-5,2.4l-5.2-0.3c-1.2-0.3-2.5,0.1-3.3,1l8.6,5.4l5.4,8.6
			C40.4,68.7,40.8,67.4,40.5,66.2z"/>
	</g>
</g>
</svg>
